<svg width="166" height="19" viewBox="0 0 166 19" fill="none" xmlns="http://www.w3.org/2000/svg">
<path d="M9.317 18.288C8.021 18.288 6.813 18.08 5.693 17.664C4.589 17.232 3.629 16.624 2.813 15.84C1.997 15.056 1.357 14.136 0.893004 13.08C0.445004 12.024 0.221004 10.864 0.221004 9.6C0.221004 8.336 0.445004 7.176 0.893004 6.12C1.357 5.064 1.997 4.144 2.813 3.36C3.645 2.576 4.613 1.976 5.717 1.56C6.821 1.128 8.029 0.912 9.341 0.912C10.797 0.912 12.109 1.168 13.277 1.68C14.461 2.176 15.453 2.912 16.253 3.888L13.757 6.192C13.181 5.536 12.541 5.048 11.837 4.728C11.133 4.392 10.365 4.224 9.533 4.224C8.749 4.224 8.029 4.352 7.373 4.608C6.717 4.864 6.149 5.232 5.669 5.712C5.189 6.192 4.813 6.76 4.541 7.416C4.285 8.072 4.157 8.8 4.157 9.6C4.157 10.4 4.285 11.128 4.541 11.784C4.813 12.44 5.189 13.008 5.669 13.488C6.149 13.968 6.717 14.336 7.373 14.592C8.029 14.848 8.749 14.976 9.533 14.976C10.365 14.976 11.133 14.816 11.837 14.496C12.541 14.16 13.181 13.656 13.757 12.984L16.253 15.288C15.453 16.264 14.461 17.008 13.277 17.52C12.109 18.032 10.789 18.288 9.317 18.288ZM30.1586 18V1.2H37.4306C38.9346 1.2 40.2306 1.448 41.3186 1.944C42.4066 2.424 43.2466 3.12 43.8386 4.032C44.4306 4.944 44.7266 6.032 44.7266 7.296C44.7266 8.544 44.4306 9.624 43.8386 10.536C43.2466 11.432 42.4066 12.12 41.3186 12.6C40.2306 13.08 38.9346 13.32 37.4306 13.32H32.3186L34.0466 11.616V18H30.1586ZM40.8386 18L36.6386 11.904H40.7906L45.0386 18H40.8386ZM34.0466 12.048L32.3186 10.224H37.2146C38.4146 10.224 39.3106 9.968 39.9026 9.456C40.4946 8.928 40.7906 8.208 40.7906 7.296C40.7906 6.368 40.4946 5.648 39.9026 5.136C39.3106 4.624 38.4146 4.368 37.2146 4.368H32.3186L34.0466 2.52V12.048ZM59.087 18V1.2H62.975V18H59.087ZM83.762 18.288C82.418 18.288 81.13 18.112 79.898 17.76C78.666 17.392 77.674 16.92 76.922 16.344L78.242 13.416C78.962 13.928 79.81 14.352 80.786 14.688C81.778 15.008 82.778 15.168 83.786 15.168C84.554 15.168 85.17 15.096 85.634 14.952C86.114 14.792 86.466 14.576 86.69 14.304C86.914 14.032 87.026 13.72 87.026 13.368C87.026 12.92 86.85 12.568 86.498 12.312C86.146 12.04 85.682 11.824 85.106 11.664C84.53 11.488 83.89 11.328 83.186 11.184C82.498 11.024 81.802 10.832 81.098 10.608C80.41 10.384 79.778 10.096 79.202 9.744C78.626 9.392 78.154 8.928 77.786 8.352C77.434 7.776 77.258 7.04 77.258 6.144C77.258 5.184 77.514 4.312 78.026 3.528C78.554 2.728 79.338 2.096 80.378 1.632C81.434 1.152 82.754 0.912 84.338 0.912C85.394 0.912 86.434 1.04 87.458 1.296C88.482 1.536 89.386 1.904 90.17 2.4L88.97 5.352C88.186 4.904 87.402 4.576 86.618 4.368C85.834 4.144 85.066 4.032 84.314 4.032C83.562 4.032 82.946 4.12 82.466 4.296C81.986 4.472 81.642 4.704 81.434 4.992C81.226 5.264 81.122 5.584 81.122 5.952C81.122 6.384 81.298 6.736 81.65 7.008C82.002 7.264 82.466 7.472 83.042 7.632C83.618 7.792 84.25 7.952 84.938 8.112C85.642 8.272 86.338 8.456 87.026 8.664C87.73 8.872 88.37 9.152 88.946 9.504C89.522 9.856 89.986 10.32 90.338 10.896C90.706 11.472 90.89 12.2 90.89 13.08C90.89 14.024 90.626 14.888 90.098 15.672C89.57 16.456 88.778 17.088 87.722 17.568C86.682 18.048 85.362 18.288 83.762 18.288ZM104.827 18V1.2H112.099C113.603 1.2 114.899 1.448 115.987 1.944C117.075 2.424 117.915 3.12 118.507 4.032C119.099 4.944 119.395 6.032 119.395 7.296C119.395 8.544 119.099 9.624 118.507 10.536C117.915 11.448 117.075 12.152 115.987 12.648C114.899 13.128 113.603 13.368 112.099 13.368H106.987L108.715 11.616V18H104.827ZM108.715 12.048L106.987 10.2H111.883C113.083 10.2 113.979 9.944 114.571 9.432C115.163 8.92 115.459 8.208 115.459 7.296C115.459 6.368 115.163 5.648 114.571 5.136C113.979 4.624 113.083 4.368 111.883 4.368H106.987L108.715 2.52V12.048ZM133.45 18V1.2H137.338V18H133.45ZM156.181 7.968H164.269V10.992H156.181V7.968ZM156.469 14.88H165.613V18H152.605V1.2H165.301V4.32H156.469V14.88Z" fill="#FFD08F"/>
</svg>
